<?xml version="1.0" standalone="no"?>
<!DOCTYPE svg PUBLIC "-//W3C//DTD SVG 20010904//EN"
 "http://www.w3.org/TR/2001/REC-SVG-20010904/DTD/svg10.dtd">
<svg version="1.0" xmlns="http://www.w3.org/2000/svg"
 width="500.000000pt" height="500.000000pt" viewBox="0 0 500.000000 500.000000"
 preserveAspectRatio="xMidYMid meet">
<metadata>
Created by potrace 1.11, written by Peter Selinger 2001-2013
</metadata>
<g transform="translate(0.000000,500.000000) scale(0.100000,-0.100000)"
fill="#000000" stroke="none">
<path d="M0 2500 l0 -2500 2500 0 2500 0 0 2500 0 2500 -2500 0 -2500 0 0
-2500z m1589 1263 c-87 -176 -141 -457 -110 -578 13 -51 66 -134 131 -205 45
-49 44 -43 -8 38 -18 30 -32 55 -30 58 2 2 20 -1 40 -7 26 -7 54 -30 99 -80
34 -38 64 -68 66 -65 3 2 -11 32 -31 66 -20 33 -36 62 -36 63 0 4 205 -5 209
-8 2 -2 -20 -48 -49 -101 -60 -114 -45 -108 37 13 53 78 63 88 122 114 76 34
84 35 126 9 27 -17 40 -38 69 -113 l36 -93 -24 -70 c-13 -38 -45 -123 -70
-188 -76 -195 -41 -154 58 69 32 72 62 134 67 139 4 5 29 -4 56 -21 26 -16 71
-42 100 -57 l52 -27 63 32 c34 17 79 42 100 55 21 13 41 24 46 24 5 0 19 -26
32 -57 44 -108 131 -286 136 -280 3 3 -24 85 -61 182 -36 98 -67 185 -68 194
0 9 14 54 32 99 24 59 43 90 66 108 40 30 45 30 125 -2 61 -23 68 -30 112 -97
26 -40 61 -88 78 -107 26 -30 23 -22 -20 60 -27 52 -50 100 -50 107 0 8 31 13
98 15 53 2 99 2 101 1 2 -1 -13 -30 -33 -64 -20 -34 -35 -64 -32 -66 2 -2 32
28 67 66 35 39 70 73 79 75 8 2 27 7 43 10 l27 6 -45 -70 c-25 -38 -42 -70
-37 -70 11 1 93 104 132 167 l35 56 -1 146 c-1 129 -4 157 -28 236 -35 115
-73 210 -103 258 -13 20 -20 37 -15 37 23 0 212 -265 313 -440 188 -324 233
-613 107 -688 -25 -15 -31 -14 -105 11 -185 64 -330 75 -490 37 -93 -22 -122
-34 -110 -46 4 -4 49 2 100 15 173 43 286 37 471 -24 39 -13 127 -40 196 -60
69 -20 130 -38 135 -40 6 -2 -31 -4 -82 -4 -63 -1 -131 7 -220 26 -179 37
-314 37 -438 -1 -49 -15 -94 -31 -99 -37 -17 -16 76 -10 139 10 106 33 166 34
330 6 228 -40 278 -46 303 -40 34 8 26 -6 -38 -60 -87 -75 -251 -162 -341
-181 -92 -19 -192 -14 -278 15 -73 25 -87 22 -38 -7 27 -15 34 -25 31 -43 -2
-13 -11 -82 -19 -153 -14 -113 -20 -134 -46 -172 -16 -24 -35 -44 -42 -44 -7
0 -56 13 -109 29 -54 15 -94 23 -89 17 5 -6 46 -29 90 -51 45 -21 81 -42 81
-46 0 -17 -103 -179 -114 -179 -11 0 -54 16 -165 60 -74 29 -52 6 53 -55 47
-27 86 -55 86 -60 0 -6 -9 -42 -20 -80 -35 -117 -39 -137 -50 -225 -14 -115
-15 -116 -68 -152 -26 -17 -82 -60 -125 -95 l-78 -64 -72 11 c-51 7 -94 8
-146 0 -57 -8 -77 -7 -90 2 -9 7 -41 33 -71 59 -30 25 -80 62 -111 82 -61 40
-61 41 -76 167 -6 54 -23 128 -53 228 -12 41 -20 75 -18 76 2 1 35 21 73 43
127 74 132 87 15 43 -58 -22 -109 -40 -115 -40 -10 1 -100 143 -107 168 -2 8
31 32 84 60 85 46 123 72 84 58 -57 -20 -200 -56 -210 -53 -6 3 -23 27 -38 53
-21 39 -30 79 -44 188 l-17 140 34 29 c21 19 27 27 14 22 -93 -33 -175 -46
-252 -41 -98 7 -167 31 -285 100 -78 46 -196 133 -197 146 -1 3 30 6 68 6 39
1 103 9 143 18 230 49 321 53 447 15 66 -20 152 -26 135 -10 -5 6 -49 22 -99
37 -124 38 -260 38 -434 0 -88 -18 -152 -26 -220 -25 l-96 0 120 35 c66 19
161 48 210 64 202 67 297 74 465 34 104 -24 145 -26 110 -4 -34 21 -201 51
-286 51 -102 1 -151 -8 -286 -53 -88 -29 -100 -31 -123 -18 -36 19 -66 82 -72
151 -11 116 65 346 177 539 84 146 294 440 314 440 2 0 -14 -35 -35 -77z
m1134 -713 c22 -1 22 -11 -9 -102 -24 -72 -29 -79 -77 -111 -84 -54 -124 -77
-135 -77 -16 0 -155 86 -175 108 -15 17 -67 152 -67 175 0 5 6 7 13 4 7 -2 30
-1 52 4 31 6 238 5 398 -1z"/>
<path d="M1935 2362 c25 -16 35 -34 57 -108 15 -49 30 -100 33 -115 4 -16 21
-32 48 -47 60 -31 130 -59 166 -67 17 -3 33 -10 36 -14 16 -27 48 -296 51
-434 3 -149 14 -217 36 -217 5 0 8 18 8 40 l0 41 46 -33 c95 -68 84 -67 151
-15 32 26 62 47 66 47 4 0 7 -19 7 -42 l1 -43 19 35 c16 30 19 56 19 180 0 88
6 187 16 250 9 58 19 122 22 142 7 44 12 49 78 73 28 9 78 31 112 46 50 24 63
35 72 62 5 17 22 72 36 120 22 74 31 90 53 99 15 6 22 12 16 15 -12 4 -209
-68 -436 -161 -75 -31 -141 -56 -147 -56 -6 0 -95 34 -197 75 -201 82 -370
145 -388 145 -6 0 3 -8 19 -18z m472 -201 c102 -46 87 -47 226 16 43 19 80 33
81 31 1 -1 -6 -58 -17 -126 l-19 -122 -88 -93 -88 -92 -22 20 c-13 11 -53 54
-90 96 -67 76 -67 76 -79 160 -7 46 -15 102 -18 123 -5 31 -3 38 8 34 8 -4 55
-25 106 -47z m89 -423 c4 -6 45 28 91 73 81 79 85 82 80 52 -4 -18 -9 -61 -13
-97 -7 -64 -7 -65 -80 -137 l-74 -74 -70 70 c-69 70 -69 70 -80 145 -6 41 -13
86 -16 99 -4 19 11 10 76 -49 44 -40 83 -77 86 -82z m75 -163 c71 69 71 70 65
36 -3 -18 -6 -55 -6 -81 0 -46 -2 -49 -62 -99 -35 -28 -65 -51 -68 -51 -3 0
-33 25 -67 55 l-61 55 -4 75 -3 75 68 -67 67 -67 71 69z"/>
<path d="M2266 1251 c-3 -5 14 -14 38 -20 37 -9 45 -16 51 -41 4 -16 11 -33
17 -36 8 -5 9 1 5 17 -4 13 -7 32 -7 41 0 10 -8 21 -17 26 -28 14 -82 22 -87
13z"/>
<path d="M2683 1248 c-26 -5 -44 -16 -47 -26 -13 -50 -15 -72 -8 -72 5 0 13
15 18 33 8 26 18 35 52 47 23 8 42 18 42 22 0 9 -1 9 -57 -4z"/>
</g>
</svg>
