<?xml version="1.0" encoding="utf-8"?>
<!-- Generator: Adobe Illustrator 19.2.1, SVG Export Plug-In . SVG Version: 6.00 Build 0)  -->
<svg version="1.1" id="layer" xmlns="http://www.w3.org/2000/svg" xmlns:xlink="http://www.w3.org/1999/xlink" x="0px" y="0px"
	 viewBox="0 150 652 300" style="enable-background:new 0 0 652 652;" xml:space="preserve">
<style type="text/css">
	.st0{fill:#272425;}
	.st1{fill:#544295;}
</style>
<g>
	<path class="st0" d="M327.7,241.9l17.8,53.3c2.1,6.5,3.6,8,7.3,8h3.6v9.4h-38.9v-9.4h3.2c3.2,0,5.9-0.4,5.9-1.6
		c0-1.1-0.1-2.2-0.5-3.8l-2.2-7.7h-21.7l-1.3,4.3c-1.2,3.7-1.6,5.3-1.6,6.8c0,1.7,3.7,2,6.6,2h3.1v9.4h-31.3v-9.4h3.6
		c3.7,0,5.2-1.5,7.4-8l17.8-53.3H327.7z M305.2,280.7h15.5l-7.7-22.9h-0.2L305.2,280.7z"/>
	<path class="st0" d="M363.2,255c0-3-0.7-4.6-3.8-4.6h-4.9v-8.5h26.4v26.5c3.9-4.5,9-7.4,13.8-7.4c16,0,22,12.5,22,26.5
		c0,14.1-6,26.5-22,26.5c-6.7,0-12.7-2.3-16.4-8.2l-3.1,6.6h-11.9V255z M380.9,287.6c0,10.9,2.4,17.4,8.4,17.4c6,0,8.4-6.5,8.4-17.4
		c0-10.9-2.4-17.4-8.4-17.4C383.3,270.2,380.9,276.7,380.9,287.6"/>
	<path class="st0" d="M425.6,255c0-3-0.7-4.6-3.8-4.6h-4.9v-8.5h26.4v26.5c3.9-4.5,9-7.4,13.8-7.4c16,0,22,12.5,22,26.5
		c0,14.1-6,26.5-22,26.5c-6.7,0-12.7-2.3-16.4-8.2l-3.1,6.6h-11.9V255z M443.3,287.6c0,10.9,2.4,17.4,8.4,17.4c6,0,8.4-6.5,8.4-17.4
		c0-10.9-2.4-17.4-8.4-17.4C445.8,270.2,443.3,276.7,443.3,287.6"/>
	<path class="st0" d="M538.6,287.6c0,17.1-11.6,26.5-27.5,26.5c-15.9,0-27.5-9.5-27.5-26.5c0-17.1,11.6-26.5,27.5-26.5
		C527,261,538.6,270.5,538.6,287.6 M502.5,287.6c0,12.6,2.2,18,8.6,18c6.4,0,8.6-5.4,8.6-18c0-12.6-2.2-18-8.6-18
		C504.7,269.6,502.5,275,502.5,287.6"/>
	<path class="st0" d="M564.9,242.8v19.8h13.1v8.5h-13.1v29.3c0,2.2,1.2,4,3.6,4c4,0,5.1-2.9,5.1-7.8v-8.3h8.5v9.5
		c0,10.4-5.1,16.2-17.9,16.2c-11,0-17.1-5.3-17.1-16.2v-26.8h-7.1v-8.5c10.7,0,13.4-11,14.3-19.8H564.9z"/>
	<path class="st0" d="M609.6,242.8v19.8h13.1v8.5h-13.1v29.3c0,2.2,1.2,4,3.6,4c4,0,5.1-2.9,5.1-7.8v-8.3h8.5v9.5
		c0,10.4-5.1,16.2-17.9,16.2c-11,0-17.1-5.3-17.1-16.2v-26.8h-7.1v-8.5c10.7,0,13.4-11,14.3-19.8H609.6z"/>
	<path class="st0" d="M278.5,407.7v-9.4h6.5c2.7,0,4.1-1.6,4.1-4.3v-43.4c0-2.7-1.5-4.3-4.1-4.3h-6.6V337h70.9v27.1h-9.9
		c0-15.4-6-17.7-19.6-17.7h-10.5v20.4h3.3c6.1,0,8.4-2.8,8.4-7.2v-4.2h8.9v32.2H321v-4.2c0-4.5-2.3-7.2-8.4-7.2h-3.3v17.9
		c0,2.7,1.5,4.3,4.1,4.3h6.6v9.4H278.5z"/>
	<path class="st0" d="M394.9,407.7v-8.2h-0.2c-4.7,6.8-9.7,9.8-18.3,9.8c-12.2,0-16.2-5.2-16.2-16.7v-21.6c0-3-0.7-4.6-3.8-4.6h-3.5
		v-8.5h25.1v31.4c0,7.6,0,10.4,8.2,10.4c4.9,0,8-4.6,8-9.1v-19.7c0-3-0.7-4.6-3.8-4.6h-4.7v-8.5h26.2v36.8c0,3,0.7,4.6,3.8,4.6h3.8
		v8.5H394.9z"/>
	<path class="st0" d="M449,357.8v8.2h0.2c4.7-6.8,9.7-9.8,18.3-9.8c12.2,0,16.2,7,16.2,18.1v20.2c0,3,0.7,4.6,3.8,4.6h4v8.5H460
		v-8.5h2.2c3.1,0,3.8-1.6,3.8-4.6v-18.3c0-6.2-1-10.4-8.2-10.4c-4.9,0-8,4.6-8,9.1v19.7c0,3,0.7,4.6,3.8,4.6h2.6v8.5H424v-8.5h4.3
		c3.1,0,3.8-1.6,3.8-4.6v-23.7c0-3-0.7-4.6-3.8-4.6h-4.4v-8.5H449z"/>
	<path class="st0" d="M529.9,399.9h-0.2c-3.1,6.5-8.6,9.4-15.5,9.4c-16.1,0-20.9-13.5-20.9-26.5c0-13,4.8-26.5,20.9-26.5
		c6.4,0,12.4,2.5,14.6,7.1l0.2-0.2v-14.8c0-3-0.7-4.6-3.8-4.6h-4.4v-8.5h25.9v59.4c0,3,0.7,4.6,3.8,4.6h4.2v8.5h-24.8V399.9z
		 M529,382.3c0-10.4-2.4-16.9-8.4-16.9s-8.4,6.5-8.4,16.9c0,10.4,2.4,17.1,8.4,17.1S529,392.8,529,382.3"/>
	<path class="st1" d="M209,241.6H26.9l0,28h173v0c5,0,9,4,9,9v94l-0.1,0.1c0,5-4.1,9-9,9H63.9c-5,0-9-4-9-9v-38c0-5,4.1-9,9-9h117
		v-28H54.7c-15.4,0-27.9,12.5-27.9,27.9c0,6.7,0,46.6,0,56.2c0,15.4,12.5,27.9,27.9,27.9H209c15.4,0,27.9-12.5,27.9-27.9
		c0-10.4,0-99.3,0-112.2C236.9,254,224.4,241.6,209,241.6"/>
</g>
</svg>
