<svg xmlns="http://www.w3.org/2000/svg" width="593.15" height="222.86" viewBox="0 0 593.15 222.86"><title>rotary-logo-color-2019</title><path d="M172.73 137.43l.42 8a2.42 2.42 0 0 1-1.94 2.48 73.18 73.18 0 0 1-10.88 1.37c-14.56 0-19-5.57-19-23.82V97.52h-5.59a2.41 2.41 0 0 1-2.4-2.41v-8.25a2.4 2.4 0 0 1 2.4-2.39h5.59v-9.81a2.4 2.4 0 0 1 1.82-2.33l9.66-2.35a2.39 2.39 0 0 1 3 2.33v12.16h14.72a2.4 2.4 0 0 1 2.39 2.39v8.25a2.41 2.41 0 0 1-2.39 2.41h-14.76v25.85c0 8.94.32 12 6.59 12 2.31 0 5.94-.15 7.88-.26a2.4 2.4 0 0 1 2.49 2.32zm-45.59-21.66c0 23-8.75 33.31-28.36 33.31s-28.51-10.31-28.51-33.31c0-22.7 8.79-32.82 28.51-32.82 19.35 0 28.36 10.42 28.36 32.82zm-14.69 0c0-14.14-3.84-19.64-13.67-19.64-10.2 0-13.78 5.13-13.78 19.64 0 13.16 2.2 20.27 13.82 20.27 11.39 0 13.63-7.43 13.63-20.27zM342.8 85.4a2.34 2.34 0 0 0-1.88-.93h-9.38a2.39 2.39 0 0 0-2.31 1.78l-12.56 47.38h-1l-12.55-47.38a2.39 2.39 0 0 0-2.32-1.78h-9.36a2.39 2.39 0 0 0-2.33 3l13.83 53.14c.7 2.63 3.13 7.09 7.95 7.09h2.68c-.23.89-.47 1.84-.73 2.65l-.13.41c-.75 2.45-1.88 6.15-8.72 6.15l-12-.73a2.34 2.34 0 0 0-1.83.67 2.4 2.4 0 0 0-.72 1.83l.3 6.26a2.36 2.36 0 0 0 1.82 2.22 90.6 90.6 0 0 0 15.81 2.1h.76c9 0 15.15-5.84 18.24-17.34 3.58-13.48 8.07-30.8 11.35-43.46l3.67-14.11 1.8-6.89a2.33 2.33 0 0 0-.39-2.06zM61.47 144.34a2.49 2.49 0 0 1-.18 2.28 2.46 2.46 0 0 1-2 1.08H48.06a2.36 2.36 0 0 1-2.19-1.43l-14.36-32.3c-7.14 0-13.34-.43-16.69-.67v32a2.39 2.39 0 0 1-2.39 2.4h-10A2.41 2.41 0 0 1 0 145.3v-81a2.39 2.39 0 0 1 2.14-2.38 248.23 248.23 0 0 1 27-1.61h2C55.8 60.31 61 74.88 61 87.08c0 10.19-4.86 17.56-14.87 22.53zM31.08 74.21h-5.29a59.24 59.24 0 0 0-11 .78v25c2.82.2 8.26.48 15.55.4 9.42-.09 15.28-5.09 15.28-13 .03-6.4-3.8-13.18-14.54-13.18zm200.6 30.15v41.92a2.41 2.41 0 0 1-2.68 2.39 18 18 0 0 1-9.57-4c-.1.05-10.94 4.42-20.65 4.42-11.67 0-18.37-7.37-18.37-20.25 0-12.58 6.14-18.15 21.17-19.28l15.71-1.25v-3.82c0-4.82-2.88-7.59-7.87-7.59-6.88 0-16.7.8-21.92 1.27a2.38 2.38 0 0 1-1.82-.58 2.46 2.46 0 0 1-.82-1.7l-.3-8a2.38 2.38 0 0 1 2-2.47c4.68-.74 16.35-2.44 23.63-2.44 14.65-.03 21.49 6.79 21.49 21.38zm-28.39 16c-5.67.54-8.35 3.13-8.35 8.12 0 3.08.83 8.26 6.45 8.26 6.68 0 15.74-2.53 15.85-2.55v-14.62zm75.27-36.32c-6.37.38-12.66 4-16.57 6.81v-3.99a2.39 2.39 0 0 0-2.41-2.39h-9.64a2.4 2.4 0 0 0-2.42 2.39v58.44a2.4 2.4 0 0 0 2.42 2.4h9.64a2.4 2.4 0 0 0 2.41-2.4v-40.39c2.17-1.82 8.91-6.87 16.94-7.57a2.41 2.41 0 0 0 2.18-2.4v-8.56a2.41 2.41 0 0 0-2.55-2.39z" fill="#17458f"/><path d="M593 107.97v-.31l-.24-.14a35 35 0 0 0-17-4.61c-.12-.8-.88-6.48-1-7.29A34.8 34.8 0 0 0 590 86.77l.21-.19-.06-.31a32.87 32.87 0 0 0-1.86-7l-.12-.28-.29-.07a34.88 34.88 0 0 0-17.58 0c-.28-.75-2.44-6-2.75-6.72a35.85 35.85 0 0 0 12.38-12.43l.14-.23-.07-.27a36.05 36.05 0 0 0-3.6-6.25l-.17-.24h-.32a35.44 35.44 0 0 0-17 4.47c-.48-.66-4-5.23-4.47-5.87a35.22 35.22 0 0 0 8.8-15.22l.08-.3-.21-.23a32.61 32.61 0 0 0-5.11-5.16l-.22-.17h-.31a35.44 35.44 0 0 0-15.22 8.78c-.66-.51-5.22-4.08-5.88-4.62A34.45 34.45 0 0 0 541 17.97v-.74l-.23-.18a29.77 29.77 0 0 0-6.29-3.63l-.26-.1-.25.13a35 35 0 0 0-12.46 12.32c-.78-.3-6.33-2.63-7.06-3a36.66 36.66 0 0 0 1.19-8.89 29.91 29.91 0 0 0-1.19-8.66l-.07-.28-.29-.11a31.53 31.53 0 0 0-6.93-1.9l-.33-.05-.19.2a35.16 35.16 0 0 0-8.81 15.22c-.82-.14-6.56-.85-7.43-.94a34.77 34.77 0 0 0-4.56-17l-.14-.15h-.3a32.46 32.46 0 0 0-7.24 0h-.32l-.14.27a35 35 0 0 0-4.55 16.94c-.83.11-6.66.82-7.5 1a35.07 35.07 0 0 0-8.81-15.25l-.22-.22h-.32a34.06 34.06 0 0 0-6.95 1.86l-.28.12-.11.28a33.27 33.27 0 0 0-1.15 8.76 38.33 38.33 0 0 0 1.19 8.8c-.73.31-6.33 2.72-7.08 3a35.63 35.63 0 0 0-12.41-12.42l-.26-.16-.31.11a36.21 36.21 0 0 0-6.24 3.64l-.26.16v.8A35 35 0 0 0 427 34.5c-.63.52-4.84 3.82-5.48 4.33a35.37 35.37 0 0 0-15.23-8.82l-.28-.06-.21.2a31.11 31.11 0 0 0-5.17 5.09l-.19.24.07.29a35.54 35.54 0 0 0 8.77 15.25c-.46.64-4.13 5.42-4.64 6.08a34.78 34.78 0 0 0-17-4.59h-.28l-.18.25a34.11 34.11 0 0 0-3.63 6.27l-.12.26.15.28A35.64 35.64 0 0 0 396 72.04c-.28.74-2.41 5.92-2.73 6.67a34.64 34.64 0 0 0-17.61 0l-.29.07-.1.26a32.31 32.31 0 0 0-1.9 7v.3l.21.24a34.61 34.61 0 0 0 15.23 8.73c-.12.82-.87 6.56-1 7.34a35.19 35.19 0 0 0-17 4.56l-.27.15v.3a33 33 0 0 0 0 7.25v.29l.27.14a34.8 34.8 0 0 0 17 4.55c.12.83.93 6.72 1 7.53a35.59 35.59 0 0 0-15.2 8.86l-.21.25v.27a35 35 0 0 0 1.89 7l.12.26.27.1a35.15 35.15 0 0 0 17.62 0c.3.74 2.58 6 2.9 6.71a35.34 35.34 0 0 0-12.42 12.39l-.13.27.1.28a34.49 34.49 0 0 0 3.64 6.26l.18.24h.28a35.11 35.11 0 0 0 17-4.5c.5.62 4.09 5.3 4.56 5.94a34.86 34.86 0 0 0-8.8 15.2l-.07.28.18.24a37.53 37.53 0 0 0 5.1 5.14l.24.21.29-.1a35.12 35.12 0 0 0 15.24-8.75c.66.52 5.31 4.09 6 4.6a36 36 0 0 0-4.53 16.7v.61l.27.21a36.92 36.92 0 0 0 6.23 3.62l.27.1.29-.14a35.25 35.25 0 0 0 12.46-12.47l6.58 2.67a35.85 35.85 0 0 0-1.16 8.8 31.43 31.43 0 0 0 1.19 8.76l.06.29.3.11a34 34 0 0 0 7 1.93h.32l.21-.24a34.17 34.17 0 0 0 8.72-15.2c.84.14 6.72 1 7.54 1.06a34.83 34.83 0 0 0 4.59 16.93l.12.26h.33a32.37 32.37 0 0 0 7.23 0h.29l.15-.26a35.68 35.68 0 0 0 4.6-17c.82-.11 6.32-.88 7.14-1a34.5 34.5 0 0 0 8.79 15.24l.22.2h.27a37.08 37.08 0 0 0 7-1.87l.26-.13.09-.27a32 32 0 0 0 1.14-8.76 37.3 37.3 0 0 0-1.14-8.89c.76-.29 6.09-2.6 6.84-2.93a35.8 35.8 0 0 0 12.42 12.44l.24.12.29-.11a31.5 31.5 0 0 0 6.29-3.65l.23-.14v-.81a36.19 36.19 0 0 0-4.5-16.53c.64-.5 5-3.92 5.67-4.43a36.06 36.06 0 0 0 15.27 8.79l.28.08.22-.2a37.06 37.06 0 0 0 5.15-5.1l.2-.26-.1-.26a35.15 35.15 0 0 0-8.73-15.25c.49-.65 4-5.32 4.52-6a34.8 34.8 0 0 0 17 4.49h.3l.18-.22a28.82 28.82 0 0 0 3.63-6.3l.12-.25-.14-.27a36.44 36.44 0 0 0-12.3-12.48c.3-.74 2.41-5.89 2.72-6.63a34 34 0 0 0 17.55 0l.26-.09.12-.26a34.36 34.36 0 0 0 1.91-7v-.3l-.22-.23a34.64 34.64 0 0 0-15.15-8.78c.13-.8.91-6.32 1-7.13a35 35 0 0 0 17-4.58l.24-.16v-.31a28.06 28.06 0 0 0 .2-3.62 27.68 27.68 0 0 0-.13-3.5zm-111.21 86.3a83.5 83.5 0 1 1 83.48-83.5 83.59 83.59 0 0 1-83.48 83.5z" fill="#f7a81b"/><path d="M481.79 37.32a73.46 73.46 0 1 0 73.45 73.45 73.52 73.52 0 0 0-73.45-73.45zM491 49.13a2.93 2.93 0 0 1 2.57-.2c14.76 3.57 25.59 9.8 36.17 20.92a3.45 3.45 0 0 1 1.16 2.19v.26c-.22 1-1.35 1.55-2.36 2l-30.9 15a3.33 3.33 0 0 1-3.25.07 3.42 3.42 0 0 1-1.58-2.86l-2.49-34.23c-.1-1.64.12-2.65.68-3.15zm-57.37 21c10.57-11.1 21.39-17.37 36.15-20.91a2.82 2.82 0 0 1 2.54.21c.63.48.84 1.49.73 3.13l-2.45 34.21a3.3 3.3 0 0 1-1.55 2.86 3.33 3.33 0 0 1-3.25-.07l-30.88-15c-1-.5-2.19-1-2.39-2a3.09 3.09 0 0 1 1.13-2.45zm-7.33 63.44c-1.34.92-2.33 1.25-3.09 1s-1.12-1.22-1.39-2.13c-4.37-14.58-4.37-27.08-.05-41.78.37-1.26.9-2 1.57-2.2 1-.36 2 .37 3 1l28.38 19.31a3.4 3.4 0 0 1 1.7 2.78 3.56 3.56 0 0 1-1.66 2.77zm46.6 40.2a2.89 2.89 0 0 1-2.57.14c-14.75-3.52-25.6-9.76-36.15-20.89a3.29 3.29 0 0 1-1.14-2.13 1.16 1.16 0 0 1 0-.31c.14-1 1.33-1.54 2.33-2l30.9-15a3.15 3.15 0 0 1 4.83 2.78l2.5 34.3c.16 1.59-.08 2.59-.67 3.11zm8.8-42.76a20.07 20.07 0 0 1-11-36.82 4.052 4.052 0 0 1 4.47 6.76 12 12 0 1 0 13.15 0 4.052 4.052 0 0 1 4.47-6.76 20.07 20.07 0 0 1-11 36.83zm48.08 21.61c-10.53 11.08-21.31 17.32-36.15 20.88a3 3 0 0 1-2.66-.23c-.78-.65-.68-2-.6-3.08l2.46-34.25a3.64 3.64 0 0 1 1.62-2.9 3.53 3.53 0 0 1 3.22.1l30.91 15c1.45.71 2.22 1.41 2.37 2.18s-.45 1.57-1.14 2.28zm10.42-64.34c.83.28 1.16 1.2 1.41 2.11 4.35 14.59 4.35 27.08 0 41.79-.35 1.26-.86 2-1.53 2.23-1 .3-2-.4-2.92-1.06l-28.42-19.28a3.46 3.46 0 0 1-1.73-2.79 3.5 3.5 0 0 1 1.73-2.79l28.42-19.27c1.31-.94 2.32-1.23 3.07-.96z" fill="#f7a81b"/></svg>