<svg xmlns="http://www.w3.org/2000/svg" height="350" width="1200" viewBox="-118.63875 -26.93025 1028.2025 161.5815"><defs><clipPath id="a" clipPathUnits="userSpaceOnUse"><path d="M7 0h587v774H7z"/></clipPath></defs><g clip-path="url(#a)" transform="matrix(2.93227 0 0 -2.93135 -493.346 1441.652)"><path d="M266.944 479.183c2.555 0 3.913-1.831 4.129-4.212h-8.305c.226 2.223 1.451 4.212 4.176 4.212m4.589-10.296c-.268-.493-1.23-2.526-4.334-2.526-2.492 0-4.258 1.947-4.431 4.667h13.997v1.736c0 5.198-3.109 10.486-9.821 10.486-6.038 0-9.854-4.531-9.854-10.487 0-5.857 3.744-10.488 10.089-10.488 5.562 0 7.693 3.309 8.197 4.401zm-55.437 10.296c2.556 0 3.916-1.831 4.131-4.212h-8.304c.225 2.223 1.45 4.212 4.173 4.212m4.59-10.296c-.266-.493-1.23-2.526-4.332-2.526-2.494 0-4.258 1.947-4.431 4.667h13.995v1.736c0 5.198-3.108 10.486-9.822 10.486-6.037 0-9.853-4.531-9.853-10.487 0-5.857 3.744-10.488 10.089-10.488 5.563 0 7.693 3.309 8.197 4.401zm-18.293 22.445l-5.173-20.287-5.174 20.287h-7.124l-5.321-20.867-5.322 20.867h-6.032l7.355-28.466h7.56l5.142 20.173 5.144-20.173h7.135l7.355 28.466zm37.63-14.236l3.647 2.466c-.472.798-2.414 3.69-8.095 3.69-4.243 0-7.766-2.184-7.766-6.035 0-3.596 2.607-5.309 5.478-6.193.859-.262 1.708-.51 2.472-.752 1.537-.492 2.726-.917 2.726-2.106 0-1.056-1.176-1.806-3.233-1.806-2.663 0-3.883 1.61-4.328 2.293l-3.827-2.15c.372-.923 2.437-4.229 8.509-4.229 4.631 0 8.569 1.952 8.569 6.29 0 3.612-2.577 5.309-5.621 6.237-.771.238-1.526.471-2.22.683-1.384.418-2.836.796-2.836 2.108 0 .963.915 1.572 2.601 1.572 2.638 0 3.538-1.517 3.924-2.068m51.294 6.156c-5.149 0-6.355-2.895-6.748-3.808h-.08l-.002 3.216h-5.115v-19.794h5.709v9.823c0 4.262 2.834 6.009 6.236 6.009zm7.604-.592h-5.665v-19.794h5.706v11.907c0 2.376 1.269 3.95 3.527 3.95 2.55 0 3.575-1.878 3.575-3.95v-11.907h5.706v13.236c0 4.087-2.277 7.146-7.091 7.146-3.924 0-5.297-2.337-5.676-2.995h-.082zm-52.386 4.969h5.666v-4.969h4.459v-3.944h-4.459v-9.662c0-1.71 1.026-2.896 2.744-2.896.919 0 1.439.096 1.598.125v-3.417c-.29-.094-1.837-.592-3.926-.592-4.616 0-6.082 2.954-6.082 6.703v18.652m137.937 4.176a3.19 3.19 0 01-3.19-3.187 3.19 3.19 0 016.379 0 3.189 3.189 0 01-3.189 3.187m-2.926-9.149h5.853v-19.792h-5.853zm-28.848 9.149a3.187 3.187 0 11-.003-6.373 3.187 3.187 0 01.003 6.373m-2.926-9.149h5.855v-19.792h-5.855zm58.307-13.628c0-1.654 1.226-2.668 2.881-2.668 2.472 0 3.485 2.049 3.492 4.377v1.197h-2.249c-2.983 0-4.124-1.246-4.124-2.906m-5.142 10.704c.545.698 2.526 3.516 7.774 3.516 4.912 0 9.433-2.186 9.433-7.837v-12.545h-5.533v1.979h-.074c-.299-.398-1.67-2.571-5.669-2.571-3.708 0-6.471 2.554-6.471 6.418 0 4.547 3.765 6.676 9.542 6.676h2.513v.44c0 2.142-1.595 3.37-4.149 3.37-2.263 0-3.542-1.248-4.069-1.971zm-34.718-12.21c-3.237 0-3.827 3.168-3.827 5.732 0 2.918.817 5.733 3.827 5.733 2.999 0 3.825-2.815 3.825-5.733 0-2.564-.664-5.732-3.825-5.732m3.825 15.134v-2.127h-.079c-.342.611-1.749 2.719-5.424 2.719-6.06 0-8.266-4.947-8.266-9.994 0-5.054 2.208-9.995 8.266-9.995 3.747 0 5.134 2.193 5.424 2.721h.079v-2.263c0-2.722-1.934-4.423-4.197-4.423-2.59 0-3.952 1.731-4.326 2.404-.508-.259-3.822-2.241-3.822-2.241.406-.836 2.107-4.4 8.33-4.4 6.551 0 9.684 4.185 9.684 10.042v17.557zm63.471-17.717c.349 0 .511.212.511.433 0 .216-.151.437-.511.437h-.436v-.87zm-.436-.405v-1.21h-.492v2.884h.902c.579 0 1.035-.227 1.035-.795 0-.43-.273-.613-.545-.672v-.012c.292-.068.419-.253.456-.568l.098-.837h-.483s-.039.34-.061.517c-.063.512-.23.693-.603.693zm2.467.2a2.02 2.02 0 01-2.018 2.018 2.027 2.027 0 01-2.031-2.018c0-1.123.908-2.03 2.031-2.03 1.116 0 2.018.907 2.018 2.03m-4.481 0a2.453 2.453 0 002.463 2.448c1.36 0 2.45-1.096 2.45-2.448 0-1.365-1.09-2.46-2.45-2.46a2.455 2.455 0 00-2.463 2.46m-9.024 26.598h5.851v-28.466h-5.851zm-95.264-23.735h3.239c7.41 0 8.486 4.968 8.486 9.501 0 4.533-1.14 9.502-8.486 9.502h-3.239zm-6.115 23.735h9.706c8.855 0 14.405-4.337 14.405-14.234s-5.357-14.232-14.405-14.232h-9.706zm68.421-3.703h5.666v-4.971h4.46v-3.942h-4.46v-9.662c0-1.71 1.027-2.896 2.742-2.896.923 0 1.441.096 1.598.125v-3.417c-.287-.096-1.836-.592-3.922-.592-4.618 0-6.084 2.953-6.084 6.701v18.654"/></g></svg>