<svg id="Layer_1" data-name="Layer 1" xmlns="http://www.w3.org/2000/svg" viewBox="0 0 359.6 144"><title>ZOOX_SL_blk</title><path d="M239.73,66.29c0-4.33-.64-9.22-4.85-13.44S225.77,48,221.44,48c-3.78,0-7.68,0-11.45,0-4.33,0-9.22.64-13.44,4.85s-4.82,9.11-4.86,13.44c0,3.78,0,7.67,0,11.45,0,4.33.65,9.22,4.86,13.44S205.66,96,210,96c3.77,0,7.67,0,11.45,0,4.33,0,9.22-.64,13.44-4.85s4.82-9.11,4.85-13.44C239.77,74,239.77,70.07,239.73,66.29Zm-6,12.08c0,2.77-.41,5.88-3.1,8.57s-5.8,3.07-8.57,3.1c-4.18,0-8.53,0-12.71,0-2.77,0-5.88-.41-8.57-3.1s-3.07-5.8-3.1-8.57c0-4.18,0-8.53,0-12.71,0-2.77.41-5.88,3.1-8.57s5.8-3.07,8.57-3.1c4.18,0,8.53,0,12.71,0,2.77,0,5.88.41,8.57,3.1s3.07,5.8,3.1,8.57C233.78,69.84,233.78,74.19,233.74,78.37Z"/><path d="M167.57,66.29c0-4.33-.64-9.22-4.86-13.44S153.61,48,149.28,48c-3.78,0-7.68,0-11.45,0-4.34,0-9.22.64-13.44,4.85s-4.82,9.11-4.86,13.44c0,3.78,0,7.67,0,11.45,0,4.33.64,9.22,4.86,13.44S133.49,96,137.83,96c3.77,0,7.67,0,11.45,0,4.33,0,9.22-.64,13.43-4.85s4.82-9.11,4.86-13.44C167.6,74,167.6,70.07,167.57,66.29Zm-6,12.08c0,2.77-.4,5.88-3.09,8.57S152.67,90,149.9,90c-4.17,0-8.52,0-12.7,0-2.77,0-5.89-.41-8.58-3.1s-3.06-5.8-3.09-8.57c0-4.18,0-8.53,0-12.71,0-2.77.41-5.88,3.09-8.57S134.43,54,137.2,54c4.18,0,8.53,0,12.7,0,2.77,0,5.89.41,8.58,3.1s3.07,5.8,3.09,8.57C161.62,69.84,161.62,74.19,161.57,78.37Z"/><path d="M53.36,89.85a.3.3,0,0,1,.11-.23L94.2,58a3.39,3.39,0,0,0,1.21-2.48V51.36A3,3,0,0,0,92,48H48.21a.86.86,0,0,0-.84.83v4.32a.86.86,0,0,0,.84.84H89.28a.14.14,0,0,1,.14.14v.1a.28.28,0,0,1-.11.22L48.58,86.11a3.39,3.39,0,0,0-1.21,2.48v4.07A3.05,3.05,0,0,0,50.74,96H94.57a.86.86,0,0,0,.84-.83V90.88a.86.86,0,0,0-.84-.84H53.5a.14.14,0,0,1-.14-.14"/><path d="M263.68,94.84l20.22-22.7a.2.2,0,0,0,0-.25q-10.15-11.41-20.32-22.81a.66.66,0,0,1,.51-1.14h5.48a1.77,1.77,0,0,1,1.22.55q8.47,9.51,16.94,19a.21.21,0,0,0,.29,0l16.94-19a1.79,1.79,0,0,1,1.22-.55h5.48a.66.66,0,0,1,.51,1.14L291.85,71.89a.2.2,0,0,0,0,.25l20.22,22.7a.66.66,0,0,1-.5,1.14h-5.48a1.76,1.76,0,0,1-1.22-.55Q296.44,86,288,76.51a.21.21,0,0,0-.29,0Q279.32,86,270.88,95.43a1.76,1.76,0,0,1-1.22.55h-5.47A.66.66,0,0,1,263.68,94.84Z"/></svg>